<svg version="1.1" xmlns="http://www.w3.org/2000/svg" xmlns:xlink="http://www.w3.org/1999/xlink" x="0px" y="0px"
	 viewBox="0 0 35 35" style="enable-background:new 0 0 35 35;" xml:space="preserve">
<g>
	<g>
		<path d="M11.72,2.65c0.16,2.95,0.07,5.93-0.32,8.86c-0.15,1.15-0.25,2.51-0.81,3.54c-0.2,0.37-0.49,0.78-0.91,0.92c-0.18,0.06-0.34-0.13-0.16,0.12c-0.5-0.69-1.37-1.02-2.16-0.57c-0.68,0.4-1.06,1.46-0.57,2.16c1.08,1.5,2.95,1.82,4.56,0.96c1.58-0.84,2.39-2.59,2.74-4.26c0.79-3.83,0.97-7.84,0.77-11.74C14.76,0.63,11.61,0.62,11.72,2.65L11.72,2.65z"/>
		<path d="M8.55,4.54c3.44-0.14,6.83,0.85,10.28,0.52c0.82-0.08,1.62-0.67,1.58-1.58c-0.04-0.79-0.7-1.66-1.58-1.58c-3.44,0.33-6.84-0.66-10.28-0.52c-0.82,0.03-1.61,0.7-1.58,1.58C7.01,3.79,7.67,4.57,8.55,4.54L8.55,4.54z"/>
	</g>
	<path fill="#ffff00" d="M7.06,21.38c-1.76-0.58-4.41-1.09-5.62,0.73c-1.17,1.76-0.06,3.74,1.19,5.08c0.5,0.53,1.05,1.01,1.56,1.53c0.16,0.16,0.31,0.33,0.45,0.5c0.18,0.21,0-0.04,0.16,0.22c0.01,0.02,0.29,0.38,0.15,0.21C5,29.84,5.02,29.86,5,29.71c0.05-0.15,0.04-0.12-0.01,0.06c0.11-0.23-0.13,0.19-0.14,0.2c0.13-0.19-0.13,0.15-0.16,0.19c-0.15,0.16-0.3,0.31-0.47,0.45c0.17-0.15-0.2,0.14-0.2,0.14c-0.16,0.1-0.32,0.2-0.49,0.29c-0.07,0.04-0.15,0.07-0.22,0.11c0.13-0.05,0.1-0.04-0.08,0.02c-0.16,0.05-0.31,0.1-0.47,0.14c-0.06,0.02-0.64,0.11-0.38,0.08c-0.82,0.09-1.62,0.66-1.58,1.58c0.03,0.78,0.7,1.67,1.58,1.58c1.72-0.18,3.35-0.86,4.54-2.15c0.64-0.69,1.21-1.54,1.24-2.52c0.03-1.01-0.47-1.86-1.07-2.62c-0.45-0.58-0.98-1.08-1.5-1.58c-0.28-0.27-0.57-0.54-0.83-0.83c-0.27-0.3-0.28-0.31-0.47-0.61c-0.06-0.1-0.12-0.2-0.17-0.3c0.04,0.09,0.04,0.08,0-0.02c-0.02-0.11-0.03-0.11-0.02,0c0.01-0.19,0-0.2-0.02-0.04c-0.06-0.25,0.13-0.07-0.06,0.04c0.01-0.01-0.22,0.15-0.21,0.1c0.02-0.23,2.26,0.35,2.42,0.41c0.78,0.26,1.76-0.3,1.94-1.1C8.36,22.45,7.9,21.65,7.06,21.38L7.06,21.38z"/>
	<path fill="#9a9a9b" d="M15.26,26.63c0,0,3.22-4.53,2.9-4.68c-1.23-0.59-4.48-1.47-6.33,4.15c0,0-1.22,3.34-0.05,7.78c0,0,2.18-3.91,5.78-4.3c0,0,6.74-2.92,1.64-6.96C19.01,22.49,15.44,26.76,15.26,26.63z"/>
	<path fill="#9a9a9b" d="M16.64,20.92l5.01,3.27c0.97,0.64,2.29,0.27,2.79-0.79L34.01,3.2c0.41-0.87,0.12-1.91-0.69-2.45l0,0c-0.81-0.53-1.88-0.37-2.51,0.36L16.23,18.05C15.47,18.93,15.66,20.28,16.64,20.92z"/>
</g>
</svg>
