<svg version="1.1" xmlns="http://www.w3.org/2000/svg" xmlns:xlink="http://www.w3.org/1999/xlink" x="0px" y="0px"
	 viewBox="0 0 35 35" style="enable-background:new 0 0 35 35;" xml:space="preserve">
	<path fill="#964591" d="M30.17,23.31c0,0-0.17,0.17-1.12,0.38c-0.68,0.15-0.72-0.33-1.58-0.18c-0.53,0.09-1.31,0.06-1.25-0.47c0.03-0.33-0.57-0.66-0.83-0.66c-0.26,0-1.03-0.1-0.81-0.99c0.18-0.7,2.56-1,2.75-3.2c0.27-3.05,0.7-5.85-0.96-6.98c-1.65-1.13-6.15-2.68-8.99-1.58s-7.75,1.93-10.28,4.2c-1.92,1.73-3.39,4.72-2.39,7.02s7.5,5.96,7.5,5.96s2.61,2.22-1.06,0.51C7.5,25.6,4,24.49,3.07,22.14c-0.51-1.29-1.09-3.21-0.7-4.65c0.39-1.44,1.75-3.95,4.41-5.65c3.56-2.28,5.18-3.09,7.11-3.78c2.34-0.84,3-1.16,7.05-1.52c3.59-0.32,6.67-0.04,9.17,2.18c1.67,1.49,2.53,3.91,2.67,5.07c0.24,2.02,0.58,3.26,0.39,5.03C32.89,21.34,31.61,22.25,30.17,23.31z"/>
	<path fill="#682375" d="M23.82,20.36l-7.5-8.71c-0.32-0.38-0.88-0.45-1.29-0.18l0,0c-0.42,0.28-0.57,0.81-0.36,1.26L19.6,23.1c0.26,0.55,0.94,0.74,1.44,0.41l2.58-1.68C24.12,21.5,24.22,20.81,23.82,20.36z"/>
	<path fill="#682375" d="M22.3,22.71c-2.62,2.08,0.84,3.58,0.84,3.58c1.85,0.2,2.97,2.21,2.97,2.21c0.6-2.28-0.03-4-0.03-4c-0.95-2.89-2.62-2.44-3.25-2.13c-0.16,0.07,1.49,2.4,1.49,2.4C24.23,24.84,22.39,22.64,22.3,22.71z"/>
</svg>
