<svg version="1.1" xmlns="http://www.w3.org/2000/svg" xmlns:xlink="http://www.w3.org/1999/xlink" x="0px" y="0px" viewBox="0 0 35 35" style="enable-background:new 0 0 35 35;" xml:space="preserve">
	<path fill="#bd70b7" d="M31.3,24c0,0-0.2,0.2-1.2,0.4c-0.8,0.2-0.8-0.4-1.8-0.2c-0.6,0.1-1.5,0.1-1.4-0.5c0-0.4-0.6-0.7-0.9-0.7s-1.1-0.1-0.9-1.1c0.2-0.8,2.9-1.1,3.1-3.6c0.3-3.4,0.8-6.5-1.1-7.8c-1.8-1.3-6.9-3-10-1.8s-8.6,2.2-11.5,4.7c-2.1,1.9-3.8,5.3-2.7,7.8s8.4,6.6,8.4,6.6s2.9,2.5-1.2,0.6c-4.1-1.9-8-3.2-9-5.8c-0.6-1.4-1.2-3.6-0.8-5.2s2-4.4,4.9-6.3c4-2.5,5.8-3.4,7.9-4.2c2.6-0.9,3.3-1.3,7.9-1.7c4-0.4,7.4,0,10.2,2.4c1.9,1.7,2.8,4.4,3,5.7c0.3,2.3,0.6,3.6,0.4,5.6C34.4,21.8,32.9,22.8,31.3,24z"/>
	<path fill="#964591" d="M24.3,20.7L15.9,11c-0.4-0.4-1-0.5-1.4-0.2l0,0c-0.5,0.3-0.6,0.9-0.4,1.4l5.5,11.6c0.3,0.6,1,0.8,1.6,0.5l2.9-1.9C24.6,22,24.7,21.2,24.3,20.7z"/>
	<path fill="#964591" d="M22.6,23.3c-2.9,2.3,0.9,4,0.9,4c2.1,0.2,3.3,2.5,3.3,2.5c0.7-2.5,0-4.5,0-4.5c-1.1-3.2-2.9-2.7-3.6-2.4c-0.2,0.1,1.7,2.7,1.7,2.7C24.7,25.7,22.7,23.2,22.6,23.3z"/>
</svg>
