<?xml version="1.0" encoding="utf-8"?>
<!-- Generator: Adobe Illustrator 25.0.0, SVG Export Plug-In . SVG Version: 6.00 Build 0)  -->
<svg version="1.1" id="Layer" xmlns="http://www.w3.org/2000/svg" xmlns:xlink="http://www.w3.org/1999/xlink" x="0px" y="0px"
	 viewBox="0 0 35 35" style="enable-background:new 0 0 35 35;" xml:space="preserve">
<style type="text/css">
	.st0{fill:#9A949B;}
</style>
<path class="st0" d="M12.89,20.53l3.91,2.55c0.76,0.5,1.79,0.21,2.18-0.62L26.45,6.7c0.32-0.68,0.09-1.49-0.54-1.91l0,0
	c-0.63-0.41-1.47-0.29-1.96,0.28L12.57,18.29C11.97,18.98,12.12,20.03,12.89,20.53z"/>
<path class="st0" d="M11.81,24.99c0,0,2.51-3.54,2.26-3.65c-0.96-0.46-3.5-1.15-4.94,3.24c0,0-0.95,2.61-0.04,6.07
	c0,0,1.7-3.05,4.51-3.36c0,0,5.26-2.28,1.28-5.43C14.74,21.76,11.95,25.09,11.81,24.99z"/>
</svg>
